<svg width="35" height="36" viewBox="0 0 35 36" fill="none" xmlns="http://www.w3.org/2000/svg">
<path d="M3.93528 20.3032L3.93633 20.3042L16.2888 31.8363C16.6158 32.1416 17.0485 32.3125 17.5 32.3125C17.9515 32.3125 18.3842 32.1416 18.7112 31.8363L31.0637 20.3042L31.0647 20.3032C32.9387 18.5587 34 16.1103 34 13.5498V13.1533C34 8.86386 30.9013 5.20681 26.6735 4.50104L3.93528 20.3032ZM3.93528 20.3032C2.06126 18.5587 1 16.1103 1 13.5498V13.1533C1 8.86386 4.09871 5.20681 8.32651 4.50104L3.93528 20.3032ZM17.5 8.47671L16.7929 7.76961L15.9726 6.94929C13.9725 4.94919 11.1253 4.03465 8.32674 4.501L17.5 8.47671ZM17.5 8.47671L18.2071 7.76961M17.5 8.47671L18.2071 7.76961M18.2071 7.76961L19.0274 6.94929C21.0275 4.94919 23.8747 4.03466 26.6733 4.501L18.2071 7.76961Z" stroke="white" stroke-width="2"/>
</svg>
